<svg xmlns="http://www.w3.org/2000/svg" width="22" height="17" viewBox="0 0 22 17">
    <path fill="#53A8E2"
          d="M19.937 0H2.063C.925 0 0 .953 0 2.125v12.75C0 16.047.925 17 2.063 17h17.874C21.075 17 22 16.047 22 14.875V2.125C22 .953 21.075 0 19.937 0zm0 1.417c.094 0 .183.02.264.054L11 9.688 1.799 1.47c.081-.034.17-.054.263-.054h17.875zm0 14.166H2.063c-.38 0-.688-.317-.688-.708V2.968l9.174 8.192c.13.116.29.173.451.173.16 0 .32-.057.45-.173l9.175-8.192v11.907c0 .39-.308.708-.688.708z"/>
</svg>
