<svg xmlns="http://www.w3.org/2000/svg" width="22" height="30" viewBox="0 0 22 30">
    <g fill="#53A8E2">
        <path d="M9.556 20.3l-.386 3.466c-.019.172.037.345.152.475.116.13.282.203.456.203h2.444c.174 0 .34-.074.456-.203.115-.13.17-.303.152-.475l-.386-3.467c.626-.455 1-1.175 1-1.966 0-1.348-1.096-2.444-2.444-2.444-1.348 0-2.444 1.096-2.444 2.444 0 .79.374 1.51 1 1.966zM11 17.11c.674 0 1.222.549 1.222 1.222 0 .469-.266.888-.694 1.096-.234.113-.37.36-.342.618l.354 3.175h-1.08l.354-3.175c.029-.258-.108-.505-.341-.618-.429-.208-.695-.627-.695-1.096 0-.673.548-1.222 1.222-1.222z"/>
        <path d="M21.389 11h-1.833V8.556C19.556 3.838 15.718 0 11 0 6.282 0 2.444 3.838 2.444 8.556V11H.611c-.338 0-.611.273-.611.611V26.89c0 1.348 1.096 2.444 2.444 2.444h17.112c1.348 0 2.444-1.096 2.444-2.444V11.61c0-.338-.273-.611-.611-.611zM3.667 8.556c0-4.044 3.29-7.334 7.333-7.334 4.044 0 7.333 3.29 7.333 7.334V11h-1.222V8.556c0-3.37-2.742-6.112-6.111-6.112-3.37 0-6.111 2.742-6.111 6.112V11H3.667V8.556zm12.222 0V11H6.11V8.556c0-2.696 2.193-4.89 4.889-4.89s4.889 2.194 4.889 4.89zm4.889 18.333c0 .674-.549 1.222-1.222 1.222H2.444c-.673 0-1.222-.548-1.222-1.222V12.222h19.556V26.89z"/>
    </g>
</svg>
